<svg width="36" height="6567" viewBox="0 0 36 6567" fill="none" xmlns="http://www.w3.org/2000/svg">
<g clip-path="url(#clip0_1485_845)">
<line x1="2" y1="119.5" x2="19" y2="119.5" stroke="#CACACA"/>
<line x1="2" y1="239.5" x2="19" y2="239.5" stroke="#CACACA"/>
<line x1="2" y1="359.5" x2="19" y2="359.5" stroke="#CACACA"/>
<line x1="2" y1="479.5" x2="19" y2="479.5" stroke="#CACACA"/>
<line x1="2" y1="599.5" x2="19" y2="599.5" stroke="#CACACA"/>
<line x1="2" y1="719.5" x2="19" y2="719.5" stroke="#CACACA"/>
<line x1="2" y1="839.5" x2="19" y2="839.5" stroke="#CACACA"/>
<line x1="2" y1="959.5" x2="19" y2="959.5" stroke="#CACACA"/>
<line x1="2" y1="1079.5" x2="19" y2="1079.5" stroke="#CACACA"/>
<line x1="2" y1="1199.5" x2="19" y2="1199.5" stroke="#CACACA"/>
<line x1="2" y1="1319.5" x2="19" y2="1319.5" stroke="#CACACA"/>
<line x1="2" y1="1439.5" x2="19" y2="1439.5" stroke="#CACACA"/>
<line x1="2" y1="1559.5" x2="19" y2="1559.5" stroke="#CACACA"/>
<line x1="2" y1="1679.5" x2="19" y2="1679.5" stroke="#CACACA"/>
<line x1="2" y1="1799.5" x2="19" y2="1799.5" stroke="#CACACA"/>
<line x1="2" y1="1919.5" x2="19" y2="1919.5" stroke="#CACACA"/>
<line x1="2" y1="2039.5" x2="19" y2="2039.5" stroke="#CACACA"/>
<line x1="2" y1="2159.5" x2="19" y2="2159.5" stroke="#CACACA"/>
<line x1="2" y1="2279.5" x2="19" y2="2279.5" stroke="#CACACA"/>
<line x1="2" y1="2399.5" x2="19" y2="2399.5" stroke="#CACACA"/>
<line x1="2" y1="2519.5" x2="19" y2="2519.5" stroke="#CACACA"/>
<line x1="2" y1="2639.5" x2="19" y2="2639.5" stroke="#CACACA"/>
<line x1="2" y1="2759.5" x2="19" y2="2759.5" stroke="#CACACA"/>
<line x1="2" y1="2879.5" x2="19" y2="2879.5" stroke="#CACACA"/>
<line x1="2" y1="2999.5" x2="19" y2="2999.5" stroke="#CACACA"/>
<line x1="2" y1="3119.5" x2="19" y2="3119.5" stroke="#CACACA"/>
<line x1="2" y1="3239.5" x2="19" y2="3239.5" stroke="#CACACA"/>
<line x1="2" y1="3359.5" x2="19" y2="3359.5" stroke="#CACACA"/>
<line x1="2" y1="3479.5" x2="19" y2="3479.5" stroke="#CACACA"/>
<line x1="2" y1="3599.5" x2="19" y2="3599.5" stroke="#CACACA"/>
<line x1="2" y1="3719.5" x2="19" y2="3719.5" stroke="#CACACA"/>
<line x1="2" y1="3839.5" x2="19" y2="3839.5" stroke="#CACACA"/>
<line x1="2" y1="3959.5" x2="19" y2="3959.5" stroke="#CACACA"/>
<line x1="2" y1="4079.5" x2="19" y2="4079.5" stroke="#CACACA"/>
<line x1="2" y1="4199.5" x2="19" y2="4199.5" stroke="#CACACA"/>
<line x1="2" y1="4319.5" x2="19" y2="4319.5" stroke="#CACACA"/>
<line x1="2" y1="4439.5" x2="19" y2="4439.5" stroke="#CACACA"/>
<line x1="2" y1="4559.5" x2="19" y2="4559.5" stroke="#CACACA"/>
<line x1="2" y1="4679.5" x2="19" y2="4679.5" stroke="#CACACA"/>
<line x1="2" y1="4799.5" x2="19" y2="4799.5" stroke="#CACACA"/>
<line x1="2" y1="4919.5" x2="19" y2="4919.5" stroke="#CACACA"/>
<line x1="2" y1="5039.5" x2="19" y2="5039.5" stroke="#CACACA"/>
<line x1="2" y1="5159.5" x2="19" y2="5159.5" stroke="#CACACA"/>
<line x1="2" y1="5279.5" x2="19" y2="5279.5" stroke="#CACACA"/>
<line x1="2" y1="5399.5" x2="19" y2="5399.5" stroke="#CACACA"/>
<line x1="2" y1="5519.5" x2="19" y2="5519.5" stroke="#CACACA"/>
<line x1="2" y1="5639.5" x2="19" y2="5639.5" stroke="#CACACA"/>
<line x1="2" y1="5759.5" x2="19" y2="5759.5" stroke="#CACACA"/>
<line x1="2" y1="5879.5" x2="19" y2="5879.5" stroke="#CACACA"/>
<line x1="2" y1="5999.5" x2="19" y2="5999.5" stroke="#CACACA"/>
<line x1="2" y1="6119.5" x2="19" y2="6119.5" stroke="#CACACA"/>
<line x1="2" y1="6239.5" x2="19" y2="6239.5" stroke="#CACACA"/>
<line x1="2" y1="6359.5" x2="19" y2="6359.5" stroke="#CACACA"/>
<line x1="2" y1="6479.5" x2="19" y2="6479.5" stroke="#CACACA"/>
<line x1="2" y1="149.5" x2="34" y2="149.5" stroke="#CACACA"/>
<line x1="2" y1="269.5" x2="34" y2="269.5" stroke="#CACACA"/>
<line x1="2" y1="389.5" x2="34" y2="389.5" stroke="#CACACA"/>
<line x1="2" y1="509.5" x2="34" y2="509.5" stroke="#CACACA"/>
<line x1="2" y1="629.5" x2="34" y2="629.5" stroke="#CACACA"/>
<line x1="2" y1="749.5" x2="34" y2="749.5" stroke="#CACACA"/>
<line x1="2" y1="869.5" x2="34" y2="869.5" stroke="#CACACA"/>
<line x1="2" y1="989.5" x2="34" y2="989.5" stroke="#CACACA"/>
<line x1="2" y1="1109.5" x2="34" y2="1109.5" stroke="#CACACA"/>
<line x1="2" y1="1229.5" x2="34" y2="1229.5" stroke="#CACACA"/>
<line x1="2" y1="1349.5" x2="34" y2="1349.5" stroke="#CACACA"/>
<line x1="2" y1="1469.5" x2="34" y2="1469.5" stroke="#CACACA"/>
<line x1="2" y1="1589.5" x2="34" y2="1589.5" stroke="#CACACA"/>
<line x1="2" y1="1709.5" x2="34" y2="1709.5" stroke="#CACACA"/>
<line x1="2" y1="1829.5" x2="34" y2="1829.5" stroke="#CACACA"/>
<line x1="2" y1="1949.5" x2="34" y2="1949.5" stroke="#CACACA"/>
<line x1="2" y1="2069.5" x2="34" y2="2069.5" stroke="#CACACA"/>
<line x1="2" y1="2189.5" x2="34" y2="2189.5" stroke="#CACACA"/>
<line x1="2" y1="2309.5" x2="34" y2="2309.5" stroke="#CACACA"/>
<line x1="2" y1="2429.5" x2="34" y2="2429.5" stroke="#CACACA"/>
<line x1="2" y1="2549.5" x2="34" y2="2549.5" stroke="#CACACA"/>
<line x1="2" y1="2669.5" x2="34" y2="2669.5" stroke="#CACACA"/>
<line x1="2" y1="2789.5" x2="34" y2="2789.5" stroke="#CACACA"/>
<line x1="2" y1="2909.5" x2="34" y2="2909.5" stroke="#CACACA"/>
<line x1="2" y1="3029.5" x2="34" y2="3029.5" stroke="#CACACA"/>
<line x1="2" y1="3149.5" x2="34" y2="3149.5" stroke="#CACACA"/>
<line x1="2" y1="3269.5" x2="34" y2="3269.5" stroke="#CACACA"/>
<line x1="2" y1="3389.5" x2="34" y2="3389.5" stroke="#CACACA"/>
<line x1="2" y1="3509.5" x2="34" y2="3509.5" stroke="#CACACA"/>
<line x1="2" y1="3629.5" x2="34" y2="3629.5" stroke="#CACACA"/>
<line x1="2" y1="3749.5" x2="34" y2="3749.5" stroke="#CACACA"/>
<line x1="2" y1="3869.5" x2="34" y2="3869.5" stroke="#CACACA"/>
<line x1="2" y1="3989.5" x2="34" y2="3989.5" stroke="#CACACA"/>
<line x1="2" y1="4109.5" x2="34" y2="4109.5" stroke="#CACACA"/>
<line x1="2" y1="4229.5" x2="34" y2="4229.5" stroke="#CACACA"/>
<line x1="2" y1="4349.5" x2="34" y2="4349.5" stroke="#CACACA"/>
<line x1="2" y1="4469.5" x2="34" y2="4469.5" stroke="#CACACA"/>
<line x1="2" y1="4589.5" x2="34" y2="4589.5" stroke="#CACACA"/>
<line x1="2" y1="4709.5" x2="34" y2="4709.5" stroke="#CACACA"/>
<line x1="2" y1="4829.5" x2="34" y2="4829.5" stroke="#CACACA"/>
<line x1="2" y1="4949.5" x2="34" y2="4949.5" stroke="#CACACA"/>
<line x1="2" y1="5069.5" x2="34" y2="5069.5" stroke="#CACACA"/>
<line x1="2" y1="5189.5" x2="34" y2="5189.5" stroke="#CACACA"/>
<line x1="2" y1="5309.5" x2="34" y2="5309.5" stroke="#CACACA"/>
<line x1="2" y1="5429.5" x2="34" y2="5429.5" stroke="#CACACA"/>
<line x1="2" y1="5549.5" x2="34" y2="5549.5" stroke="#CACACA"/>
<line x1="2" y1="5669.5" x2="34" y2="5669.5" stroke="#CACACA"/>
<line x1="2" y1="5789.5" x2="34" y2="5789.5" stroke="#CACACA"/>
<line x1="2" y1="5909.5" x2="34" y2="5909.5" stroke="#CACACA"/>
<line x1="2" y1="6029.5" x2="34" y2="6029.5" stroke="#CACACA"/>
<line x1="2" y1="6149.5" x2="34" y2="6149.5" stroke="#CACACA"/>
<line x1="2" y1="6269.5" x2="34" y2="6269.5" stroke="#CACACA"/>
<line x1="2" y1="6389.5" x2="34" y2="6389.5" stroke="#CACACA"/>
<line x1="2" y1="6509.5" x2="34" y2="6509.5" stroke="#CACACA"/>
<line x1="2" y1="59.5" x2="19" y2="59.5" stroke="#CACACA"/>
<line x1="2" y1="179.5" x2="19" y2="179.5" stroke="#CACACA"/>
<line x1="2" y1="299.5" x2="19" y2="299.5" stroke="#CACACA"/>
<line x1="2" y1="419.5" x2="19" y2="419.5" stroke="#CACACA"/>
<line x1="2" y1="539.5" x2="19" y2="539.5" stroke="#CACACA"/>
<line x1="2" y1="659.5" x2="19" y2="659.5" stroke="#CACACA"/>
<line x1="2" y1="779.5" x2="19" y2="779.5" stroke="#CACACA"/>
<line x1="2" y1="899.5" x2="19" y2="899.5" stroke="#CACACA"/>
<line x1="2" y1="1019.5" x2="19" y2="1019.5" stroke="#CACACA"/>
<line x1="2" y1="1139.5" x2="19" y2="1139.5" stroke="#CACACA"/>
<line x1="2" y1="1259.5" x2="19" y2="1259.5" stroke="#CACACA"/>
<line x1="2" y1="1379.5" x2="19" y2="1379.5" stroke="#CACACA"/>
<line x1="2" y1="1499.5" x2="19" y2="1499.5" stroke="#CACACA"/>
<line x1="2" y1="1619.5" x2="19" y2="1619.5" stroke="#CACACA"/>
<line x1="2" y1="1739.5" x2="19" y2="1739.5" stroke="#CACACA"/>
<line x1="2" y1="1859.5" x2="19" y2="1859.5" stroke="#CACACA"/>
<line x1="2" y1="1979.5" x2="19" y2="1979.5" stroke="#CACACA"/>
<line x1="2" y1="2099.5" x2="19" y2="2099.5" stroke="#CACACA"/>
<line x1="2" y1="2219.5" x2="19" y2="2219.5" stroke="#CACACA"/>
<line x1="2" y1="2339.5" x2="19" y2="2339.5" stroke="#CACACA"/>
<line x1="2" y1="2459.5" x2="19" y2="2459.5" stroke="#CACACA"/>
<line x1="2" y1="2579.5" x2="19" y2="2579.5" stroke="#CACACA"/>
<line x1="2" y1="2699.5" x2="19" y2="2699.5" stroke="#CACACA"/>
<line x1="2" y1="2819.5" x2="19" y2="2819.5" stroke="#CACACA"/>
<line x1="2" y1="2939.5" x2="19" y2="2939.5" stroke="#CACACA"/>
<line x1="2" y1="3059.5" x2="19" y2="3059.5" stroke="#CACACA"/>
<line x1="2" y1="3179.5" x2="19" y2="3179.5" stroke="#CACACA"/>
<line x1="2" y1="3299.5" x2="19" y2="3299.5" stroke="#CACACA"/>
<line x1="2" y1="3419.5" x2="19" y2="3419.5" stroke="#CACACA"/>
<line x1="2" y1="3539.5" x2="19" y2="3539.5" stroke="#CACACA"/>
<line x1="2" y1="3659.5" x2="19" y2="3659.5" stroke="#CACACA"/>
<line x1="2" y1="3779.5" x2="19" y2="3779.5" stroke="#CACACA"/>
<line x1="2" y1="3899.5" x2="19" y2="3899.5" stroke="#CACACA"/>
<line x1="2" y1="4019.5" x2="19" y2="4019.5" stroke="#CACACA"/>
<line x1="2" y1="4139.5" x2="19" y2="4139.5" stroke="#CACACA"/>
<line x1="2" y1="4259.5" x2="19" y2="4259.5" stroke="#CACACA"/>
<line x1="2" y1="4379.5" x2="19" y2="4379.5" stroke="#CACACA"/>
<line x1="2" y1="4499.5" x2="19" y2="4499.5" stroke="#CACACA"/>
<line x1="2" y1="4619.5" x2="19" y2="4619.5" stroke="#CACACA"/>
<line x1="2" y1="4739.5" x2="19" y2="4739.5" stroke="#CACACA"/>
<line x1="2" y1="4859.5" x2="19" y2="4859.5" stroke="#CACACA"/>
<line x1="2" y1="4979.5" x2="19" y2="4979.5" stroke="#CACACA"/>
<line x1="2" y1="5099.5" x2="19" y2="5099.5" stroke="#CACACA"/>
<line x1="2" y1="5219.5" x2="19" y2="5219.5" stroke="#CACACA"/>
<line x1="2" y1="5339.5" x2="19" y2="5339.5" stroke="#CACACA"/>
<line x1="2" y1="5459.5" x2="19" y2="5459.5" stroke="#CACACA"/>
<line x1="2" y1="5579.5" x2="19" y2="5579.5" stroke="#CACACA"/>
<line x1="2" y1="5699.5" x2="19" y2="5699.5" stroke="#CACACA"/>
<line x1="2" y1="5819.5" x2="19" y2="5819.5" stroke="#CACACA"/>
<line x1="2" y1="5939.5" x2="19" y2="5939.5" stroke="#CACACA"/>
<line x1="2" y1="6059.5" x2="19" y2="6059.5" stroke="#CACACA"/>
<line x1="2" y1="6179.5" x2="19" y2="6179.5" stroke="#CACACA"/>
<line x1="2" y1="6299.5" x2="19" y2="6299.5" stroke="#CACACA"/>
<line x1="2" y1="6419.5" x2="19" y2="6419.5" stroke="#CACACA"/>
<line x1="2" y1="6539.5" x2="19" y2="6539.5" stroke="#CACACA"/>
<line x1="2" y1="89.5" x2="34" y2="89.5" stroke="#CACACA"/>
<line x1="2" y1="209.5" x2="34" y2="209.5" stroke="#CACACA"/>
<line x1="2" y1="329.5" x2="34" y2="329.5" stroke="#CACACA"/>
<line x1="2" y1="449.5" x2="34" y2="449.5" stroke="#CACACA"/>
<line x1="2" y1="569.5" x2="34" y2="569.5" stroke="#CACACA"/>
<line x1="2" y1="689.5" x2="34" y2="689.5" stroke="#CACACA"/>
<line x1="2" y1="809.5" x2="34" y2="809.5" stroke="#CACACA"/>
<line x1="2" y1="929.5" x2="34" y2="929.5" stroke="#CACACA"/>
<line x1="2" y1="1049.5" x2="34" y2="1049.5" stroke="#CACACA"/>
<line x1="2" y1="1169.5" x2="34" y2="1169.5" stroke="#CACACA"/>
<line x1="2" y1="1289.5" x2="34" y2="1289.5" stroke="#CACACA"/>
<line x1="2" y1="1409.5" x2="34" y2="1409.5" stroke="#CACACA"/>
<line x1="2" y1="1529.5" x2="34" y2="1529.5" stroke="#CACACA"/>
<line x1="2" y1="1649.5" x2="34" y2="1649.5" stroke="#CACACA"/>
<line x1="2" y1="1769.5" x2="34" y2="1769.5" stroke="#CACACA"/>
<line x1="2" y1="1889.5" x2="34" y2="1889.5" stroke="#CACACA"/>
<line x1="2" y1="2009.5" x2="34" y2="2009.5" stroke="#CACACA"/>
<line x1="2" y1="2129.5" x2="34" y2="2129.5" stroke="#CACACA"/>
<line x1="2" y1="2249.5" x2="34" y2="2249.5" stroke="#CACACA"/>
<line x1="2" y1="2369.5" x2="34" y2="2369.5" stroke="#CACACA"/>
<line x1="2" y1="2489.5" x2="34" y2="2489.5" stroke="#CACACA"/>
<line x1="2" y1="2609.5" x2="34" y2="2609.5" stroke="#CACACA"/>
<line x1="2" y1="2729.5" x2="34" y2="2729.5" stroke="#CACACA"/>
<line x1="2" y1="2849.5" x2="34" y2="2849.5" stroke="#CACACA"/>
<line x1="2" y1="2969.5" x2="34" y2="2969.5" stroke="#CACACA"/>
<line x1="2" y1="3089.5" x2="34" y2="3089.5" stroke="#CACACA"/>
<line x1="2" y1="3209.5" x2="34" y2="3209.5" stroke="#CACACA"/>
<line x1="2" y1="3329.5" x2="34" y2="3329.5" stroke="#CACACA"/>
<line x1="2" y1="3449.5" x2="34" y2="3449.5" stroke="#CACACA"/>
<line x1="2" y1="3569.5" x2="34" y2="3569.5" stroke="#CACACA"/>
<line x1="2" y1="3689.5" x2="34" y2="3689.5" stroke="#CACACA"/>
<line x1="2" y1="3809.5" x2="34" y2="3809.5" stroke="#CACACA"/>
<line x1="2" y1="3929.5" x2="34" y2="3929.5" stroke="#CACACA"/>
<line x1="2" y1="4049.5" x2="34" y2="4049.5" stroke="#CACACA"/>
<line x1="2" y1="4169.5" x2="34" y2="4169.5" stroke="#CACACA"/>
<line x1="2" y1="4289.5" x2="34" y2="4289.5" stroke="#CACACA"/>
<line x1="2" y1="4409.5" x2="34" y2="4409.5" stroke="#CACACA"/>
<line x1="2" y1="4529.5" x2="34" y2="4529.5" stroke="#CACACA"/>
<line x1="2" y1="4649.5" x2="34" y2="4649.5" stroke="#CACACA"/>
<line x1="2" y1="4769.5" x2="34" y2="4769.5" stroke="#CACACA"/>
<line x1="2" y1="4889.5" x2="34" y2="4889.5" stroke="#CACACA"/>
<line x1="2" y1="5009.5" x2="34" y2="5009.5" stroke="#CACACA"/>
<line x1="2" y1="5129.5" x2="34" y2="5129.5" stroke="#CACACA"/>
<line x1="2" y1="5249.5" x2="34" y2="5249.5" stroke="#CACACA"/>
<line x1="2" y1="5369.5" x2="34" y2="5369.5" stroke="#CACACA"/>
<line x1="2" y1="5489.5" x2="34" y2="5489.5" stroke="#CACACA"/>
<line x1="2" y1="5609.5" x2="34" y2="5609.5" stroke="#CACACA"/>
<line x1="2" y1="5729.5" x2="34" y2="5729.5" stroke="#CACACA"/>
<line x1="2" y1="5849.5" x2="34" y2="5849.5" stroke="#CACACA"/>
<line x1="2" y1="5969.5" x2="34" y2="5969.5" stroke="#CACACA"/>
<line x1="2" y1="6089.5" x2="34" y2="6089.5" stroke="#CACACA"/>
<line x1="2" y1="6209.5" x2="34" y2="6209.5" stroke="#CACACA"/>
<line x1="2" y1="6329.5" x2="34" y2="6329.5" stroke="#CACACA"/>
<line x1="2" y1="6449.5" x2="34" y2="6449.5" stroke="#CACACA"/>
<circle cx="18" cy="690" r="18" fill="#006B94"/>
</g>
<defs>
<clipPath id="clip0_1485_845">
<rect width="36" height="6567" fill="white"/>
</clipPath>
</defs>
</svg>
